<?xml version="1.0" standalone="no"?>
<!DOCTYPE svg PUBLIC "-//W3C//DTD SVG 20010904//EN"
 "http://www.w3.org/TR/2001/REC-SVG-20010904/DTD/svg10.dtd">
<svg version="1.0" xmlns="http://www.w3.org/2000/svg"
 width="312.000000pt" height="327.000000pt" viewBox="0 0 312.000000 327.000000"
 preserveAspectRatio="xMidYMid meet">

<g transform="translate(0.000000,327.000000) scale(0.100000,-0.100000)"
fill="#000000" stroke="none">
<path d="M0 1635 l0 -1635 1560 0 1560 0 0 1635 0 1635 -1560 0 -1560 0 0
-1635z m1768 1224 c448 -48 844 -315 1057 -712 25 -45 45 -85 45 -89 0 -5 -69
-8 -152 -9 l-153 0 175 -60 c96 -33 178 -65 181 -71 18 -30 49 -185 60 -303
41 -457 -166 -918 -540 -1201 -85 -64 -285 -172 -360 -195 -34 -10 -46 -9 -86
7 l-46 19 2 225 c1 224 -4 284 -46 531 -8 47 -15 95 -15 106 0 22 4 23 143 39
31 3 60 10 63 15 3 5 22 9 42 9 28 0 33 3 22 10 -8 5 -36 10 -61 10 -81 0
-109 9 -109 36 0 23 -3 24 -68 24 l-69 0 -65 173 c-36 94 -68 180 -72 190 -7
14 -3 17 18 17 22 0 26 4 26 29 0 27 3 29 48 36 l47 7 -32 16 c-18 9 -33 22
-33 30 0 32 44 83 101 117 32 20 59 39 59 43 0 4 -20 15 -45 25 -25 11 -45 22
-45 25 0 4 13 32 28 62 20 39 39 61 66 76 l39 22 -44 12 c-84 22 -143 48 -157
69 -14 20 -13 21 33 21 32 0 45 4 43 12 -7 19 -110 57 -191 70 -39 6 -74 13
-76 14 -2 2 7 16 19 31 l22 28 -71 3 c-74 3 -84 11 -54 44 34 38 -13 17 -138
-62 -69 -44 -129 -80 -132 -80 -4 0 -10 14 -15 31 l-8 32 -34 -57 c-19 -31
-41 -56 -50 -56 -9 0 -34 -25 -56 -55 -33 -46 -44 -55 -70 -55 -31 0 -84 -32
-84 -51 0 -12 8 -15 82 -29 l58 -11 -25 -49 c-14 -27 -25 -52 -25 -56 0 -6
100 3 133 12 15 5 17 -2 17 -59 0 -55 -4 -69 -30 -103 -16 -21 -30 -42 -30
-46 0 -14 45 -9 67 7 21 15 21 13 38 -84 10 -55 21 -105 25 -111 5 -9 28 -6
89 10 47 13 86 19 90 14 5 -5 11 -34 15 -66 6 -55 5 -57 -28 -85 -34 -28 -34
-29 -26 -83 7 -53 7 -56 -31 -107 -83 -111 -106 -167 -131 -322 -22 -135 -24
-144 -50 -157 -15 -8 -39 -14 -53 -14 -15 0 -40 -8 -56 -17 -27 -16 -30 -16
-46 0 -16 16 -16 19 1 48 13 23 15 34 7 42 -8 8 -20 2 -44 -21 l-33 -32 -154
105 -153 106 -24 -22 c-12 -13 -23 -26 -23 -29 0 -4 42 -35 94 -69 51 -34 121
-81 154 -105 l61 -43 -31 -37 c-23 -28 -28 -40 -19 -49 8 -8 20 -3 45 22 30
29 36 31 55 19 11 -7 21 -20 21 -29 0 -9 36 -50 79 -92 l79 -75 -5 -102 c-3
-55 -9 -103 -13 -105 -12 -7 -145 61 -232 119 -373 247 -592 633 -614 1076 -6
111 5 266 22 336 6 25 138 91 194 97 19 2 -11 5 -67 5 l-102 2 25 72 c62 182
162 344 305 492 300 312 705 461 1127 415z"/>
</g>
</svg>
